<svg width="216" height="117" viewBox="0 0 216 117" fill="none" xmlns="http://www.w3.org/2000/svg">
<path d="M23.5 95L23.2065 95.956L23.5 95ZM214.591 115.996C215.141 115.945 215.546 115.459 215.496 114.909L214.675 105.946C214.624 105.396 214.137 104.991 213.587 105.042C213.038 105.092 212.633 105.579 212.683 106.129L213.413 114.095L205.446 114.825C204.896 114.876 204.491 115.363 204.542 115.913C204.592 116.462 205.079 116.867 205.629 116.817L214.591 115.996ZM37.2694 0.317172C36.8098 0.808913 36.3457 1.3113 35.8777 1.82383L37.3546 3.1724C37.8175 2.66553 38.2763 2.16884 38.7306 1.68283L37.2694 0.317172ZM33.1153 4.91779C32.2247 5.93751 31.325 6.98897 30.4207 8.06903L31.9542 9.35297C32.8496 8.2836 33.7401 7.24273 34.6216 6.23347L33.1153 4.91779ZM27.7957 11.27C26.9427 12.332 26.0892 13.4166 25.2385 14.5212L26.823 15.7415C27.6653 14.6479 28.5104 13.574 29.355 12.5224L27.7957 11.27ZM22.7476 17.826C21.9336 18.9298 21.1256 20.05 20.3265 21.1844L21.9616 22.3362C22.7521 21.214 23.5517 20.1055 24.3573 19.013L22.7476 17.826ZM17.9799 24.5972C17.2117 25.7426 16.4552 26.8996 15.7137 28.066L17.4014 29.139C18.1339 27.9869 18.8814 26.8436 19.6409 25.7112L17.9799 24.5972ZM13.5353 31.5931C12.8225 32.7827 12.1278 33.9796 11.4542 35.1816L13.1989 36.1593C13.8626 34.975 14.5476 33.7948 15.2509 32.6211L13.5353 31.5931ZM9.48219 38.835C8.83974 40.0735 8.22264 41.3151 7.63431 42.5575L9.44186 43.4135C10.0193 42.1942 10.6256 40.9742 11.2575 39.756L9.48219 38.835ZM5.92964 46.3532C5.38122 47.6467 4.86762 48.9387 4.39278 50.2263L6.26924 50.9183C6.73241 49.6624 7.23418 48.4 7.77099 47.1338L5.92964 46.3532ZM3.05555 54.1799C2.64061 55.5334 2.2736 56.8794 1.95936 58.2145L3.90616 58.6727C4.20955 57.3837 4.56477 56.0804 4.96771 54.7661L3.05555 54.1799ZM1.15785 62.3259C0.941626 63.743 0.792946 65.1442 0.718255 66.5251L2.71534 66.6331C2.78625 65.3221 2.92774 63.9856 3.13497 62.6276L1.15785 62.3259ZM0.732502 70.7617C0.82516 72.1961 1.01122 73.6024 1.299 74.9745L3.25641 74.5639C2.98944 73.2911 2.81532 71.9793 2.72834 70.6328L0.732502 70.7617ZM2.51213 79.0753C3.0293 80.4023 3.66144 81.6848 4.4165 82.9162L6.12148 81.8707C5.43022 80.7434 4.85065 79.568 4.37561 78.3491L2.51213 79.0753ZM6.9817 86.3645C7.89998 87.3957 8.92574 88.376 10.0638 89.3013L11.3255 87.7495C10.2678 86.8895 9.32002 85.983 8.47531 85.0345L6.9817 86.3645ZM13.5353 91.7375C14.6936 92.4399 15.9372 93.0989 17.2691 93.712L18.1055 91.8953C16.8384 91.312 15.6622 90.6883 14.5724 90.0274L13.5353 91.7375ZM21.1682 95.2852C21.8297 95.5182 22.509 95.7418 23.2065 95.956L23.7935 94.044C23.1212 93.8376 22.4676 93.6224 21.8326 93.3988L21.1682 95.2852ZM23.2065 95.956C23.8513 96.1539 24.497 96.3428 25.1438 96.5228L25.68 94.596C25.0501 94.4207 24.4212 94.2368 23.7935 94.044L23.2065 95.956ZM29.039 97.4992C30.3497 97.7925 31.6642 98.052 32.9825 98.2799L33.3231 96.3091C32.0361 96.0866 30.7537 95.8335 29.4758 95.5475L29.039 97.4992ZM36.9528 98.8711C38.2792 99.0378 39.6093 99.175 40.9429 99.2847L41.1069 97.2915C39.8008 97.184 38.4992 97.0497 37.2022 96.8867L36.9528 98.8711ZM44.9462 99.5337C46.2764 99.5904 47.61 99.6224 48.9468 99.6315L48.9606 97.6316C47.6464 97.6226 46.3367 97.5912 45.0315 97.5355L44.9462 99.5337ZM52.9476 99.5934C54.2775 99.5597 55.6107 99.5057 56.9469 99.4335L56.8389 97.4364C55.5207 97.5076 54.2067 97.5608 52.8969 97.594L52.9476 99.5934ZM60.9303 99.1669C62.2517 99.0622 63.576 98.9418 64.9032 98.8076L64.702 96.8177C63.3881 96.9506 62.0782 97.0697 60.7723 97.1732L60.9303 99.1669ZM68.8706 98.3681C70.1858 98.2105 71.5037 98.0413 72.8244 97.8623L72.5559 95.8804C71.2444 96.0581 69.9366 96.226 68.6326 96.3824L68.8706 98.3681ZM76.7638 97.3026C78.0732 97.1086 79.3852 96.9069 80.6998 96.6992L80.3877 94.7237C79.0785 94.9306 77.7729 95.1313 76.4707 95.3242L76.7638 97.3026ZM84.6275 96.064C85.9306 95.8489 87.2362 95.6298 88.5441 95.4082L88.21 93.4363C86.904 93.6575 85.6013 93.8762 84.3019 94.0907L84.6275 96.064ZM92.4611 94.7403C93.7636 94.5174 95.068 94.2938 96.3752 94.071L96.0392 92.0994C94.731 92.3224 93.4255 92.5462 92.1237 92.769L92.4611 94.7403ZM100.284 93.4103C101.587 93.1925 102.891 92.9773 104.198 92.7662L103.879 90.7918C102.568 91.0036 101.26 91.2194 99.9545 91.4377L100.284 93.4103ZM108.112 92.1486C109.415 91.9485 110.721 91.754 112.028 91.5667L111.744 89.5869C110.43 89.7753 109.118 89.9707 107.809 90.1718L108.112 92.1486ZM115.95 91.0289C117.256 90.8582 118.565 90.6962 119.876 90.5445L119.646 88.5577C118.325 88.7107 117.006 88.8739 115.691 89.0457L115.95 91.0289ZM123.805 90.1224C125.115 89.9931 126.427 89.8755 127.741 89.7711L127.583 87.7774C126.256 87.8828 124.931 88.0016 123.609 88.132L123.805 90.1224ZM131.68 89.4999C132.992 89.4238 134.306 89.3624 135.621 89.3171L135.552 87.3183C134.22 87.3641 132.891 87.4263 131.564 87.5032L131.68 89.4999ZM139.566 89.2313C140.878 89.2198 142.191 89.2257 143.506 89.2506L143.544 87.251C142.21 87.2257 140.878 87.2197 139.549 87.2313L139.566 89.2313ZM147.443 89.3828C148.753 89.4465 150.064 89.5303 151.378 89.6357L151.538 87.6421C150.203 87.535 148.87 87.4498 147.54 87.3852L147.443 89.3828ZM155.29 90.0143C156.589 90.1619 157.889 90.3319 159.191 90.5257L159.485 88.5475C158.16 88.3502 156.837 88.1773 155.516 88.0271L155.29 90.0143ZM163.076 91.1753C164.356 91.4131 165.637 91.6751 166.919 91.9626L167.357 90.0111C166.05 89.7181 164.745 89.4512 163.442 89.209L163.076 91.1753ZM170.744 92.8961C172.002 93.2283 173.262 93.5863 174.522 93.9713L175.106 92.0585C173.821 91.666 172.537 91.3011 171.255 90.9624L170.744 92.8961ZM178.253 95.1891C179.487 95.6179 180.721 96.0735 181.957 96.5571L182.686 94.6946C181.426 94.2016 180.167 93.7372 178.91 93.3L178.253 95.1891ZM185.57 98.0503C186.765 98.5709 187.962 99.1186 189.16 99.6946L190.027 97.8921C188.806 97.3053 187.587 96.7472 186.369 96.2166L185.57 98.0503ZM192.657 101.455C193.807 102.061 194.958 102.693 196.111 103.353L197.105 101.617C195.932 100.946 194.76 100.302 193.589 99.6856L192.657 101.455ZM199.487 105.365C200.589 106.047 201.692 106.756 202.796 107.491L203.905 105.827C202.782 105.079 201.661 104.359 200.54 103.664L199.487 105.365ZM206.039 109.729C207.094 110.481 208.149 111.258 209.205 112.062L210.416 110.47C209.343 109.654 208.272 108.865 207.201 108.101L206.039 109.729ZM212.307 114.495C212.825 114.913 213.342 115.338 213.86 115.769L215.14 114.231C214.614 113.794 214.089 113.364 213.564 112.939L212.307 114.495Z" fill="#CF6E67"/>
</svg>
