<svg width="332" height="401" viewBox="0 0 332 401" fill="none" xmlns="http://www.w3.org/2000/svg">
<path d="M228.094 20.2127L228.79 19.4939L228.094 20.2127ZM288.107 102.267L288.796 102.992L288.107 102.267ZM259.135 248.363L258.893 247.393L259.135 248.363ZM135 398.5L134.81 397.518L135 398.5ZM0.796433 316.021C0.255712 316.133 -0.091488 316.663 0.020939 317.204L1.85304 326.015C1.96547 326.556 2.49495 326.903 3.03567 326.791C3.57639 326.678 3.92359 326.149 3.81117 325.608L2.18263 317.775L10.0151 316.147C10.5558 316.035 10.903 315.505 10.7906 314.964C10.6782 314.424 10.1487 314.076 9.60798 314.189L0.796433 316.021ZM0.451643 317.836C0.99277 318.191 1.53824 318.564 2.08815 318.953L3.24434 317.321C2.67619 316.919 2.11087 316.533 1.54836 316.164L0.451643 317.836ZM5.31 321.384C6.33331 322.201 7.3703 323.067 8.42143 323.979L9.73197 322.468C8.66282 321.541 7.60463 320.656 6.55717 319.821L5.31 321.384ZM11.4456 326.687C12.4201 327.586 13.4058 328.517 14.4031 329.478L15.791 328.038C14.7845 327.068 13.7879 326.127 12.8011 325.217L11.4456 326.687ZM17.3117 332.329C18.2597 333.273 19.2177 334.239 20.1859 335.224L21.6127 333.823C20.6401 332.833 19.6768 331.861 18.7225 330.912L17.3117 332.329ZM23.0376 338.151C23.9746 339.119 24.9209 340.102 25.8766 341.098L27.3197 339.714C26.3627 338.716 25.4144 337.731 24.4748 336.76L23.0376 338.151ZM28.7086 344.055C29.6408 345.029 30.5821 346.013 31.532 347.004L32.9757 345.62C32.0266 344.63 31.0862 343.647 30.1537 342.672L28.7086 344.055ZM34.3673 349.953C35.3095 350.93 36.2602 351.911 37.2197 352.895L38.6516 351.499C37.6951 350.518 36.7468 349.539 35.8066 348.564L34.3673 349.953ZM40.0936 355.822C41.0499 356.789 42.0146 357.756 42.988 358.723L44.3971 357.303C43.4285 356.342 42.468 355.378 41.5155 354.416L40.0936 355.822ZM45.912 361.595C46.8905 362.545 47.8776 363.493 48.8733 364.436L50.2485 362.984C49.2594 362.047 48.2784 361.105 47.3055 360.16L45.912 361.595ZM51.8752 367.238C52.8814 368.163 53.8962 369.082 54.9199 369.993L56.2492 368.498C55.2342 367.596 54.2275 366.684 53.229 365.766L51.8752 367.238ZM58.0144 372.695C59.0549 373.587 60.1044 374.469 61.163 375.339L62.4328 373.794C61.3854 372.933 60.3464 372.06 59.3158 371.177L58.0144 372.695ZM64.3687 377.914C65.4489 378.761 66.5385 379.595 67.6375 380.414L68.8321 378.81C67.7471 378.002 66.6708 377.178 65.6031 376.34L64.3687 377.914ZM70.9739 382.829C72.0992 383.62 73.2343 384.393 74.3792 385.147L75.4795 383.477C74.352 382.734 73.2335 381.972 72.1239 381.192L70.9739 382.829ZM77.8561 387.358C79.0307 388.078 80.2156 388.777 81.4109 389.452L82.3946 387.711C81.2208 387.048 80.0563 386.361 78.9011 385.653L77.8561 387.358ZM85.0444 391.414C86.2703 392.046 87.5069 392.652 88.7544 393.23L89.5956 391.416C88.3741 390.849 87.1624 390.256 85.9603 389.636L85.0444 391.414ZM92.5408 394.885C93.8172 395.409 95.1047 395.903 96.4035 396.366L97.0742 394.481C95.8062 394.03 94.5483 393.547 93.3004 393.035L92.5408 394.885ZM100.336 397.656C101.657 398.052 102.989 398.415 104.332 398.741L104.805 396.798C103.496 396.48 102.199 396.127 100.911 395.74L100.336 397.656ZM108.384 399.61C109.739 399.861 111.106 400.076 112.484 400.251L112.736 398.267C111.396 398.096 110.067 397.888 108.748 397.643L108.384 399.61ZM116.605 400.653C117.974 400.746 119.354 400.801 120.744 400.814L120.763 398.814C119.412 398.801 118.072 398.749 116.742 398.658L116.605 400.653ZM124.893 400.732C126.264 400.665 127.646 400.557 129.037 400.408L128.824 398.419C127.47 398.564 126.128 398.669 124.795 398.734L124.893 400.732ZM133.127 399.851C133.812 399.738 134.5 399.615 135.19 399.482L134.81 397.518C134.138 397.648 133.469 397.768 132.802 397.878L133.127 399.851ZM135.19 399.482C135.896 399.345 136.587 399.196 137.264 399.036L136.801 397.09C136.153 397.244 135.489 397.387 134.81 397.518L135.19 399.482ZM141.186 397.916C142.536 397.462 143.821 396.952 145.044 396.39L144.208 394.573C143.051 395.105 141.833 395.588 140.548 396.021L141.186 397.916ZM148.712 394.436C149.912 393.702 151.042 392.908 152.108 392.058L150.861 390.494C149.86 391.293 148.798 392.039 147.668 392.73L148.712 394.436ZM155.182 389.279C156.148 388.291 157.052 387.248 157.898 386.156L156.317 384.931C155.515 385.966 154.662 386.95 153.752 387.881L155.182 389.279ZM160.256 382.761C160.977 381.604 161.651 380.404 162.282 379.165L160.5 378.257C159.892 379.449 159.247 380.599 158.559 381.703L160.256 382.761ZM164.006 375.455C164.53 374.219 165.023 372.952 165.489 371.655L163.607 370.978C163.152 372.243 162.673 373.476 162.165 374.674L164.006 375.455ZM166.78 367.789C167.178 366.508 167.558 365.203 167.922 363.876L165.993 363.346C165.634 364.655 165.261 365.938 164.87 367.196L166.78 367.789ZM168.946 359.943C169.266 358.651 169.577 357.341 169.882 356.016L167.933 355.568C167.63 356.884 167.322 358.183 167.005 359.462L168.946 359.943ZM170.766 352.068C171.052 350.76 171.336 349.438 171.62 348.106L169.664 347.688C169.38 349.019 169.097 350.337 168.812 351.641L170.766 352.068ZM172.458 344.173C172.737 342.869 173.019 341.556 173.307 340.236L171.353 339.809C171.064 341.133 170.781 342.45 170.503 343.755L172.458 344.173ZM174.184 336.296C174.48 334.999 174.784 333.697 175.099 332.39L173.155 331.921C172.837 333.237 172.531 334.548 172.234 335.852L174.184 336.296ZM176.072 328.493C176.406 327.2 176.754 325.905 177.118 324.609L175.192 324.068C174.824 325.379 174.473 326.687 174.135 327.992L176.072 328.493ZM178.242 320.77C178.631 319.497 179.038 318.224 179.465 316.953L177.569 316.317C177.136 317.606 176.724 318.895 176.329 320.184L178.242 320.77ZM180.797 313.174C181.256 311.93 181.738 310.689 182.242 309.452L180.39 308.697C179.877 309.955 179.388 311.217 178.921 312.481L180.797 313.174ZM183.819 305.774C184.363 304.566 184.932 303.364 185.527 302.168L183.737 301.277C183.13 302.496 182.55 303.722 181.996 304.952L183.819 305.774ZM187.377 298.635C188.016 297.473 188.683 296.318 189.38 295.172L187.671 294.133C186.959 295.305 186.277 296.484 185.625 297.671L187.377 298.635ZM191.517 291.824C192.254 290.725 193.021 289.635 193.819 288.554L192.211 287.366C191.394 288.471 190.609 289.587 189.856 290.711L191.517 291.824ZM196.254 285.415C197.084 284.394 197.946 283.382 198.84 282.382L197.349 281.049C196.434 282.073 195.552 283.108 194.702 284.153L196.254 285.415ZM201.567 279.471C202.484 278.537 203.433 277.613 204.415 276.7L203.053 275.235C202.049 276.169 201.078 277.114 200.139 278.071L201.567 279.471ZM207.408 274.04C208.402 273.196 209.427 272.363 210.484 271.541L209.257 269.962C208.177 270.801 207.129 271.653 206.113 272.516L207.408 274.04ZM213.705 269.145C214.766 268.39 215.857 267.645 216.979 266.912L215.885 265.238C214.741 265.985 213.628 266.745 212.545 267.516L213.705 269.145ZM220.38 264.784C221.501 264.111 222.651 263.45 223.83 262.8L222.864 261.049C221.664 261.71 220.493 262.384 219.352 263.068L220.38 264.784ZM227.361 260.933C228.539 260.335 229.744 259.748 230.978 259.173L230.132 257.36C228.879 257.945 227.654 258.542 226.456 259.149L227.361 260.933ZM234.59 257.554C235.82 257.025 237.077 256.507 238.361 255.999L237.626 254.139C236.324 254.654 235.049 255.18 233.8 255.717L234.59 257.554ZM242.033 254.604C243.274 254.151 244.539 253.708 245.828 253.275L245.191 251.379C243.886 251.818 242.605 252.266 241.348 252.725L242.033 254.604ZM249.676 252.035C250.915 251.653 252.176 251.279 253.458 250.914L252.911 248.99C251.614 249.359 250.339 249.737 249.086 250.124L249.676 252.035ZM257.371 249.846C258.034 249.673 258.703 249.502 259.378 249.334L258.893 247.393C258.212 247.564 257.536 247.736 256.866 247.911L257.371 249.846ZM259.378 249.334C260.056 249.164 260.729 248.991 261.396 248.814L260.885 246.881C260.226 247.055 259.562 247.226 258.893 247.393L259.378 249.334ZM265.332 247.715C266.622 247.335 267.889 246.942 269.135 246.535L268.515 244.634C267.287 245.034 266.038 245.422 264.767 245.796L265.332 247.715ZM272.99 245.212C274.281 244.746 275.547 244.266 276.788 243.772L276.048 241.913C274.827 242.4 273.581 242.873 272.311 243.331L272.99 245.212ZM280.449 242.242C281.727 241.682 282.977 241.107 284.199 240.517L283.33 238.716C282.13 239.295 280.902 239.86 279.647 240.41L280.449 242.242ZM287.785 238.702C288.997 238.058 290.181 237.399 291.336 236.725L290.328 234.998C289.196 235.658 288.036 236.304 286.847 236.935L287.785 238.702ZM294.802 234.604C295.946 233.869 297.059 233.12 298.143 232.355L296.99 230.721C295.93 231.468 294.841 232.202 293.722 232.92L294.802 234.604ZM301.43 229.919C302.499 229.087 303.536 228.24 304.541 227.379L303.24 225.86C302.259 226.701 301.247 227.528 300.202 228.34L301.43 229.919ZM307.59 224.631C308.573 223.699 309.522 222.752 310.438 221.792L308.99 220.412C308.097 221.348 307.172 222.271 306.213 223.18L307.59 224.631ZM313.19 218.748C314.073 217.718 314.921 216.674 315.734 215.618L314.149 214.398C313.357 215.427 312.532 216.443 311.672 217.447L313.19 218.748ZM318.144 212.306C318.913 211.186 319.647 210.054 320.345 208.911L318.638 207.868C317.958 208.981 317.244 210.083 316.495 211.174L318.144 212.306ZM322.379 205.368C323.024 204.171 323.633 202.964 324.207 201.747L322.398 200.894C321.839 202.078 321.246 203.254 320.618 204.42L322.379 205.368ZM325.847 198.018C326.362 196.759 326.841 195.492 327.286 194.219L325.398 193.559C324.964 194.8 324.497 196.035 323.996 197.261L325.847 198.018ZM328.53 190.348C328.913 189.043 329.261 187.733 329.577 186.42L327.633 185.952C327.324 187.234 326.984 188.512 326.611 189.785L328.53 190.348ZM330.431 182.452C330.685 181.116 330.906 179.779 331.097 178.44L329.116 178.159C328.931 179.467 328.714 180.774 328.466 182.078L330.431 182.452ZM331.575 174.416C331.705 173.062 331.804 171.71 331.874 170.359L329.877 170.256C329.809 171.577 329.711 172.901 329.584 174.225L331.575 174.416ZM331.996 166.307C332.008 164.949 331.991 163.595 331.947 162.247L329.948 162.313C329.991 163.634 330.008 164.959 329.996 166.289L331.996 166.307ZM331.73 158.195C331.63 156.843 331.503 155.498 331.35 154.163L329.363 154.391C329.513 155.699 329.637 157.017 329.735 158.342L331.73 158.195ZM330.808 150.134C330.601 148.794 330.369 147.466 330.113 146.151L328.15 146.533C328.401 147.823 328.629 149.126 328.832 150.44L330.808 150.134ZM329.257 142.176C328.944 140.85 328.608 139.539 328.249 138.247L326.322 138.782C326.674 140.049 327.004 141.334 327.311 142.635L329.257 142.176ZM327.091 134.375C326.671 133.067 326.228 131.781 325.765 130.519L323.888 131.208C324.341 132.444 324.775 133.704 325.186 134.986L327.091 134.375ZM324.289 126.746C323.763 125.481 323.216 124.245 322.65 123.041L320.84 123.892C321.393 125.068 321.928 126.277 322.443 127.514L324.289 126.746ZM320.824 119.385C320.176 118.164 319.509 116.983 318.825 115.844L317.11 116.874C317.776 117.982 318.426 119.132 319.058 120.323L320.824 119.385ZM316.639 112.436C315.846 111.278 315.035 110.177 314.209 109.136L312.642 110.379C313.437 111.381 314.221 112.445 314.989 113.567L316.639 112.436ZM311.521 106.017C310.541 104.978 309.546 104.023 308.54 103.161L307.239 104.68C308.186 105.492 309.13 106.396 310.065 107.389L311.521 106.017ZM305.208 100.679C303.969 99.8933 302.717 99.2531 301.461 98.7753L300.75 100.645C301.865 101.069 302.997 101.645 304.137 102.368L305.208 100.679ZM297.303 97.8111C295.84 97.6971 294.393 97.8323 292.982 98.2406L293.537 100.162C294.706 99.8236 295.912 99.7088 297.148 99.805L297.303 97.8111ZM289.115 100.137C288.535 100.55 287.969 101.019 287.418 101.542L288.796 102.992C289.282 102.53 289.776 102.122 290.276 101.765L289.115 100.137ZM287.418 101.542C286.892 102.041 286.378 102.504 285.876 102.931L287.171 104.455C287.704 104.002 288.245 103.515 288.796 102.992L287.418 101.542ZM282.709 105.254C281.441 106.024 280.272 106.527 279.19 106.804L279.686 108.742C280.995 108.407 282.346 107.815 283.747 106.964L282.709 105.254ZM275.595 106.888C274.472 106.625 273.392 106.075 272.338 105.239L271.096 106.806C272.338 107.791 273.68 108.493 275.138 108.835L275.595 106.888ZM269.661 102.442C268.907 101.46 268.17 100.335 267.446 99.0789L265.713 100.078C266.471 101.393 267.255 102.594 268.075 103.66L269.661 102.442ZM265.576 95.5027C265.014 94.3291 264.458 93.0842 263.905 91.7756L262.062 92.5543C262.625 93.8862 263.194 95.1604 263.773 96.3674L265.576 95.5027ZM262.366 87.9651C261.883 86.7197 261.4 85.4324 260.915 84.1086L259.037 84.7969C259.525 86.1296 260.013 87.4288 260.501 88.6883L262.366 87.9651ZM259.518 80.226C259.066 78.9511 258.61 77.6507 258.149 76.3288L256.261 76.9879C256.723 78.311 257.179 79.6147 257.633 80.894L259.518 80.226ZM256.788 72.4247C256.338 71.1369 255.881 69.8337 255.416 68.5195L253.531 69.1866C253.995 70.4972 254.45 71.7974 254.899 73.0839L256.788 72.4247ZM254.02 64.6186C253.552 63.3275 253.074 62.0292 252.585 60.7274L250.713 61.4307C251.199 62.7244 251.674 64.0154 252.14 65.3006L254.02 64.6186ZM251.098 56.8518C250.593 55.5664 250.076 54.2807 249.546 52.9981L247.698 53.7626C248.223 55.0329 248.735 56.3073 249.236 57.5826L251.098 56.8518ZM247.916 49.1735C247.358 47.9037 246.785 46.6401 246.195 45.3862L244.386 46.2373C244.967 47.4747 245.534 48.7226 246.085 49.978L247.916 49.1735ZM244.369 41.6451C243.739 40.402 243.09 39.1719 242.421 37.9583L240.669 38.9239C241.326 40.1161 241.965 41.3258 242.586 42.5498L244.369 41.6451ZM240.334 34.3414C239.61 33.1431 238.864 31.9654 238.093 30.8117L236.43 31.9226C237.183 33.0495 237.913 34.2017 238.622 35.3756L240.334 34.3414ZM235.68 27.3903C234.841 26.2642 233.974 25.167 233.078 24.1027L231.548 25.3905C232.417 26.4231 233.259 27.4894 234.077 28.5858L235.68 27.3903ZM230.271 20.9795C229.785 20.4746 229.291 19.9792 228.79 19.4939L227.399 20.9315C227.883 21.3997 228.36 21.8781 228.83 22.3661L230.271 20.9795ZM228.79 19.4939C228.28 19.0015 227.774 18.5184 227.271 18.0446L225.9 19.5009C226.397 19.9683 226.896 20.4452 227.399 20.9315L228.79 19.4939ZM224.2 15.2383C223.129 14.2904 222.07 13.3863 221.022 12.5262L219.753 14.0722C220.78 14.9155 221.82 15.8034 222.874 16.736L224.2 15.2383ZM217.727 9.94113C216.576 9.08154 215.437 8.27696 214.308 7.5277L213.202 9.19412C214.298 9.92133 215.407 10.7043 216.529 11.5433L217.727 9.94113ZM210.722 5.31647C209.462 4.60037 208.212 3.95563 206.97 3.38282L206.132 5.19915C207.32 5.7466 208.52 6.3651 209.734 7.05525L210.722 5.31647ZM203.04 1.80445C201.667 1.33624 200.301 0.958449 198.938 0.671888L198.527 2.62911C199.807 2.89817 201.094 3.25396 202.394 3.69729L203.04 1.80445ZM194.709 0.0760367C193.282 -0.0253457 191.857 -0.0253462 190.431 0.0760351L190.573 2.071C191.905 1.97633 193.235 1.97633 194.567 2.071L194.709 0.0760367ZM186.201 0.671884C184.838 0.958444 183.472 1.33623 182.1 1.80444L182.746 3.69729C184.045 3.25395 185.333 2.89816 186.613 2.62911L186.201 0.671884ZM178.17 3.38281C176.927 3.95562 175.677 4.60036 174.417 5.31646L175.406 7.05524C176.62 6.36509 177.82 5.74659 179.007 5.19914L178.17 3.38281ZM170.831 7.52768C169.702 8.27695 168.563 9.08152 167.413 9.94112L168.61 11.5433C169.733 10.7043 170.841 9.92132 171.937 9.1941L170.831 7.52768ZM164.118 12.5261C163.07 13.3863 162.011 14.2904 160.94 15.2383L162.265 16.736C163.319 15.8034 164.359 14.9155 165.387 14.0722L164.118 12.5261ZM157.868 18.0446C157.365 18.5184 156.859 19.0015 156.35 19.4939L157.74 20.9315C158.243 20.4452 158.743 19.9683 159.239 19.5009L157.868 18.0446Z" fill="#CF6E67"/>
</svg>
