<svg width="191" height="153" viewBox="0 0 191 153" fill="none" xmlns="http://www.w3.org/2000/svg">
<path d="M164.5 17.1383L165.195 16.4198L164.5 17.1383ZM118.5 115L118.69 115.982L118.5 115ZM4.07626 151.883C4.28779 152.393 4.87285 152.635 5.38302 152.424L13.6967 148.977C14.2069 148.765 14.449 148.18 14.2374 147.67C14.0259 147.16 13.4408 146.918 12.9307 147.129L5.54073 150.193L2.47661 142.803C2.26507 142.293 1.68002 142.051 1.16985 142.263C0.659681 142.474 0.417589 143.059 0.629123 143.569L4.07626 151.883ZM5.92402 151.882C6.19179 151.235 6.46117 150.6 6.73215 149.975L4.89744 149.179C4.62184 149.814 4.34802 150.46 4.07598 151.118L5.92402 151.882ZM8.39187 146.331C8.99103 145.078 9.59757 143.877 10.2115 142.724L8.44611 141.784C7.81812 142.963 7.19867 144.191 6.58769 145.468L8.39187 146.331ZM12.1971 139.205C12.9083 138.017 13.6287 136.889 14.3584 135.817L12.7053 134.692C11.9528 135.797 11.2114 136.958 10.4811 138.177L12.1971 139.205ZM16.7202 132.585C17.5699 131.503 18.4314 130.491 19.3046 129.543L17.8339 128.188C16.9237 129.176 16.0283 130.228 15.1474 131.35L16.7202 132.585ZM22.1274 126.738C23.1344 125.825 24.1566 124.987 25.1939 124.219L24.004 122.612C22.9125 123.42 21.8391 124.3 20.7839 125.257L22.1274 126.738ZM28.4962 122.034C29.6499 121.356 30.8227 120.751 32.0149 120.213L31.192 118.39C29.9359 118.957 28.6994 119.595 27.4829 120.31L28.4962 122.034ZM35.7146 118.77C36.9698 118.352 38.2464 117.996 39.5452 117.694L39.0927 115.746C37.7373 116.061 36.4007 116.434 35.0832 116.872L35.7146 118.77ZM43.4692 116.952C44.7763 116.757 46.1047 116.607 47.4547 116.496L47.2905 114.502C45.9009 114.617 44.5286 114.772 43.1739 114.974L43.4692 116.952ZM51.4721 116.275C52.7965 116.235 54.1401 116.225 55.5033 116.238L55.5232 114.238C54.137 114.225 52.7667 114.235 51.4124 114.276L51.4721 116.275ZM59.5463 116.34C60.8789 116.392 62.2288 116.46 63.5964 116.54L63.7127 114.543C62.3351 114.463 60.972 114.394 59.6238 114.342L59.5463 116.34ZM67.6521 116.801C68.9901 116.894 70.3434 116.993 71.7132 117.094L71.8596 115.099C70.4899 114.999 69.1331 114.899 67.7906 114.806L67.6521 116.801ZM75.7804 117.39C77.1238 117.485 78.482 117.579 79.8546 117.665L79.9809 115.669C78.6152 115.583 77.2625 115.49 75.9223 115.395L75.7804 117.39ZM83.9364 117.899C85.286 117.967 86.6491 118.026 88.0257 118.072L88.0922 116.073C86.7285 116.027 85.3769 115.969 84.0372 115.902L83.9364 117.899ZM92.1218 118.166C93.4763 118.183 94.8434 118.184 96.2231 118.167L96.1983 116.167C94.8363 116.184 93.4856 116.183 92.1462 116.166L92.1218 118.166ZM100.327 118.06C101.683 118.006 103.051 117.932 104.431 117.835L104.291 115.84C102.932 115.935 101.584 116.008 100.247 116.062L100.327 118.06ZM108.521 117.48C109.868 117.341 111.226 117.179 112.595 116.99L112.322 115.009C110.976 115.194 109.641 115.354 108.315 115.491L108.521 117.48ZM116.653 116.357C117.329 116.239 118.008 116.114 118.69 115.982L118.31 114.018C117.641 114.148 116.974 114.27 116.309 114.386L116.653 116.357ZM118.69 115.982C119.349 115.854 120.003 115.727 120.652 115.599L120.267 113.637C119.62 113.764 118.967 113.891 118.31 114.018L118.69 115.982ZM124.522 114.828C125.832 114.564 127.119 114.299 128.384 114.036L127.976 112.078C126.715 112.341 125.431 112.604 124.126 112.868L124.522 114.828ZM132.252 113.216C133.567 112.933 134.856 112.65 136.121 112.368L135.685 110.416C134.426 110.697 133.141 110.978 131.83 111.261L132.252 113.216ZM139.98 111.491C141.293 111.187 142.576 110.883 143.831 110.581L143.362 108.637C142.113 108.938 140.836 109.239 139.529 109.542L139.98 111.491ZM147.672 109.635C148.982 109.305 150.258 108.976 151.501 108.648L150.99 106.715C149.755 107.041 148.486 107.368 147.184 107.695L147.672 109.635ZM155.316 107.616C156.63 107.251 157.904 106.887 159.138 106.524L158.573 104.605C157.35 104.965 156.086 105.326 154.78 105.689L155.316 107.616ZM162.937 105.37C164.242 104.961 165.496 104.553 166.7 104.147L166.061 102.252C164.871 102.653 163.631 103.056 162.339 103.462L162.937 105.37ZM170.457 102.825C171.758 102.348 172.99 101.872 174.156 101.399L173.403 99.5459C172.26 100.01 171.049 100.477 169.768 100.948L170.457 102.825ZM177.831 99.8142C179.129 99.217 180.325 98.6227 181.419 98.0312L180.468 96.2716C179.416 96.8403 178.26 97.4156 176.995 97.9972L177.831 99.8142ZM184.892 95.9399C186.162 95.0769 187.23 94.2128 188.101 93.3456L186.69 91.9285C185.926 92.6895 184.959 93.4764 183.768 94.2859L184.892 95.9399ZM190.564 89.7804C190.853 89.0248 191 88.2629 191 87.5H189C189 88.0015 188.904 88.5216 188.696 89.0651L190.564 89.7804ZM191 87.5C191 86.7243 190.915 85.9658 190.74 85.2148L188.792 85.6695C188.931 86.2673 189 86.873 189 87.5H191ZM188.858 81.1298C188.122 80.0545 187.195 78.9658 186.078 77.8274L184.65 79.2283C185.712 80.3098 186.556 81.3078 187.208 82.26L188.858 81.1298ZM182.99 74.9459C182.015 74.0964 180.944 73.2047 179.776 72.2602L178.519 73.8157C179.674 74.7494 180.725 75.6247 181.676 76.4538L182.99 74.9459ZM176.507 69.6718C175.47 68.864 174.372 68.0175 173.21 67.1276L171.994 68.715C173.153 69.6031 174.246 70.4461 175.278 71.2495L176.507 69.6718ZM169.911 64.6074C168.857 63.8038 167.759 62.9674 166.615 62.0944L165.402 63.6842C166.546 64.5576 167.645 65.3948 168.698 66.198L169.911 64.6074ZM163.32 59.5731C162.259 58.7583 161.162 57.9142 160.031 57.0391L158.807 58.6212C159.941 59.4981 161.039 60.3436 162.103 61.1598L163.32 59.5731ZM156.76 54.4986C156.22 54.0769 155.672 53.6484 155.117 53.2131L153.883 54.7869C154.439 55.2232 154.988 55.6526 155.53 56.0753L156.76 54.4986ZM155.117 53.2131C154.565 52.7797 154.057 52.3623 153.591 51.9602L152.284 53.474C152.776 53.8987 153.308 54.3361 153.883 54.7869L155.117 53.2131ZM150.922 49.3012C149.916 48.0819 149.466 47.1164 149.343 46.3606L147.369 46.6819C147.57 47.9192 148.251 49.207 149.38 50.5742L150.922 49.3012ZM150.426 43.763C151.153 43.0956 152.201 42.472 153.51 41.8609L152.664 40.0486C151.283 40.6932 150.021 41.4193 149.073 42.2899L150.426 43.763ZM157.094 40.4034C158.313 39.9523 159.519 39.5292 160.8 39.0592L160.112 37.1815C158.896 37.6274 157.591 38.087 156.4 38.5278L157.094 40.4034ZM164.527 37.5912C165.82 37.0288 167.062 36.4114 168.168 35.7102L167.097 34.021C166.108 34.6478 164.967 35.2187 163.729 35.7572L164.527 37.5912ZM171.37 32.8539C172.258 31.6308 172.765 30.2036 172.708 28.5482L170.709 28.6166C170.749 29.7873 170.402 30.7829 169.752 31.6785L171.37 32.8539ZM171.54 24.397C170.994 23.3025 170.249 22.1422 169.289 20.9064L167.709 22.133C168.607 23.2885 169.275 24.3376 169.75 25.2902L171.54 24.397ZM166.657 17.8859C166.199 17.4085 165.712 16.9199 165.195 16.4198L163.805 17.8569C164.305 18.341 164.774 18.812 165.213 19.2702L166.657 17.8859ZM165.195 16.4198C164.695 15.9358 164.188 15.4625 163.673 14.9999L162.336 16.4871C162.833 16.9334 163.322 17.39 163.805 17.8569L165.195 16.4198ZM160.483 12.3362C159.383 11.4837 158.256 10.6753 157.106 9.91124L155.999 11.5771C157.109 12.3146 158.197 13.0946 159.258 13.9172L160.483 12.3362ZM153.565 7.73867C152.355 7.05529 151.125 6.41721 149.876 5.82443L149.018 7.63128C150.225 8.20388 151.413 8.8201 152.581 9.47992L153.565 7.73867ZM146.063 4.17675C144.771 3.67163 143.464 3.21237 142.144 2.79895L141.546 4.70753C142.823 5.10725 144.086 5.55119 145.334 6.03934L146.063 4.17675ZM138.141 1.69447C136.794 1.37189 135.437 1.09538 134.073 0.864932L133.74 2.83699C135.06 3.05996 136.373 3.32746 137.676 3.63947L138.141 1.69447ZM129.959 0.311465C128.582 0.173038 127.2 0.0807559 125.817 0.0346124L125.75 2.0335C127.089 2.07816 128.426 2.16748 129.759 2.30144L129.959 0.311465ZM121.666 0.0346122C120.283 0.0807556 118.902 0.173038 117.524 0.311465L117.724 2.30144C119.057 2.16748 120.394 2.07816 121.733 2.0335L121.666 0.0346122ZM113.41 0.864931C112.046 1.09538 110.689 1.37189 109.342 1.69447L109.808 3.63947C111.111 3.32746 112.423 3.05996 113.743 2.83699L113.41 0.864931ZM105.339 2.79894C104.019 3.21237 102.712 3.67163 101.421 4.17674L102.149 6.03933C103.397 5.55119 104.661 5.10724 105.937 4.70753L105.339 2.79894ZM97.6077 5.82442C96.3586 6.4172 95.1279 7.05528 93.9185 7.73867L94.9024 9.47991C96.0701 8.82009 97.2586 8.20388 98.4652 7.63128L97.6077 5.82442ZM90.3772 9.91123C89.227 10.6753 88.1004 11.4836 87 12.3362L88.2249 13.9172C89.2866 13.0946 90.3738 12.3146 91.4839 11.5771L90.3772 9.91123ZM83.8099 14.9999C83.2954 15.4625 82.788 15.9358 82.2879 16.4198L83.6787 17.8569C84.1612 17.39 84.6508 16.9334 85.1472 16.4871L83.8099 14.9999Z" fill="#CF6E67"/>
</svg>
