<svg width="167" height="104" viewBox="0 0 167 104" fill="none" xmlns="http://www.w3.org/2000/svg">
<path d="M139 47L139.387 47.9219L139 47ZM3.05446 103.326C3.23424 103.848 3.80331 104.125 4.32551 103.946L12.8354 101.016C13.3576 100.836 13.6352 100.267 13.4554 99.7449C13.2756 99.2227 12.7065 98.9451 12.1843 99.1248L4.62002 101.729L2.01592 94.1646C1.83615 93.6424 1.26708 93.3648 0.744871 93.5446C0.222665 93.7244 -0.0549297 94.2935 0.124846 94.8157L3.05446 103.326ZM4.89877 103.438C5.20448 102.812 5.51076 102.195 5.81761 101.589L4.033 100.686C3.72169 101.301 3.41111 101.926 3.10123 102.562L4.89877 103.438ZM7.66595 98.0681C8.33189 96.8469 9.00074 95.6704 9.67277 94.5369L7.95243 93.5169C7.26767 94.6718 6.58698 95.8692 5.91004 97.1106L7.66595 98.0681ZM11.7898 91.1233C12.5351 89.9757 13.2846 88.8777 14.0384 87.827L12.4135 86.6611C11.6408 87.7379 10.874 88.8614 10.1125 90.034L11.7898 91.1233ZM16.4407 84.6558C17.2995 83.5837 18.1643 82.5682 19.0358 81.6061L17.5535 80.2635C16.6539 81.2566 15.7629 82.3029 14.8798 83.4054L16.4407 84.6558ZM21.8132 78.7382C22.7925 77.7947 23.7807 76.9118 24.7786 76.0849L23.5025 74.5449C22.4654 75.4042 21.44 76.3205 20.4255 77.298L21.8132 78.7382ZM27.9345 73.6746C29.0344 72.9029 30.1472 72.1906 31.2738 71.5323L30.2647 69.8055C29.0907 70.4915 27.9314 71.2337 26.7858 72.0374L27.9345 73.6746ZM34.7803 69.673C35.9798 69.0986 37.1961 68.5757 38.4305 68.0986L37.7094 66.2331C36.4287 66.7281 35.1646 67.2714 33.9164 67.8692L34.7803 69.673ZM42.1957 66.7963C43.4594 66.4073 44.7424 66.0574 46.0462 65.7409L45.5744 63.7974C44.2346 64.1226 42.9125 64.483 41.6072 64.8848L42.1957 66.7963ZM49.9593 64.8976C51.258 64.6503 52.5768 64.4288 53.917 64.2279L53.6206 62.25C52.2576 62.4543 50.9126 62.6801 49.5851 62.9329L49.9593 64.8976ZM57.9059 63.6935C59.2227 63.5358 60.5593 63.3922 61.9168 63.2581L61.7202 61.2678C60.3517 61.403 59.0011 61.5481 57.6681 61.7077L57.9059 63.6935ZM65.9434 62.8891C67.2702 62.7753 68.6158 62.6661 69.9817 62.5574L69.823 60.5637C68.4553 60.6725 67.1051 60.7821 65.7725 60.8964L65.9434 62.8891ZM74.0293 62.2378C75.358 62.1325 76.7053 62.0243 78.0711 61.9098L77.9039 59.9168C76.5426 60.0309 75.1988 60.1389 73.8713 60.2441L74.0293 62.2378ZM82.1125 61.5543C83.4427 61.4311 84.7902 61.2992 86.1554 61.1557L85.9464 59.1667C84.5905 59.3091 83.2512 59.4402 81.928 59.5629L82.1125 61.5543ZM90.1992 60.7008C91.5309 60.5404 92.8791 60.3671 94.244 60.1784L93.97 58.1972C92.6175 58.3843 91.2811 58.5561 89.9601 58.7151L90.1992 60.7008ZM98.289 59.5793C99.6077 59.3706 100.942 59.146 102.291 58.9034L101.938 56.935C100.602 57.1749 99.282 57.3972 97.9764 57.6038L98.289 59.5793ZM106.289 58.1396C107.607 57.8727 108.938 57.5875 110.285 57.2824L109.843 55.3319C108.512 55.6335 107.195 55.9155 105.892 56.1794L106.289 58.1396ZM114.259 56.3328C115.554 56.0071 116.863 55.6622 118.185 55.2964L117.651 53.3688C116.345 53.7303 115.052 54.0713 113.771 54.3932L114.259 56.3328ZM122.109 54.1599C123.396 53.7705 124.696 53.3609 126.008 52.9296L125.384 51.0296C124.087 51.4559 122.802 51.8608 121.53 52.2456L122.109 54.1599ZM129.848 51.6178C131.118 51.1671 132.401 50.6957 133.695 50.2026L132.983 48.3337C131.703 48.8213 130.435 49.2873 129.179 49.7328L129.848 51.6178ZM137.473 48.7137C138.109 48.4551 138.747 48.1912 139.387 47.9219L138.613 46.0781C137.979 46.3445 137.348 46.6056 136.719 46.8613L137.473 48.7137ZM139.387 47.9219C140.039 47.648 140.677 47.375 141.302 47.103L140.503 45.2694C139.887 45.5379 139.257 45.8075 138.613 46.0781L139.387 47.9219ZM144.953 45.4519C146.219 44.8563 147.422 44.2653 148.562 43.6786L147.648 41.9001C146.53 42.4752 145.348 43.0558 144.102 43.642L144.953 45.4519ZM152.141 41.7373C153.386 41.0234 154.54 40.3158 155.607 39.6143L154.509 37.943C153.478 38.6202 152.359 39.3068 151.146 40.0025L152.141 41.7373ZM158.941 37.227C160.123 36.2976 161.157 35.3769 162.052 34.4643L160.624 33.0638C159.797 33.9072 158.828 34.7712 157.705 35.655L158.941 37.227ZM164.688 31.2104C165.542 29.8748 166.111 28.5491 166.41 27.235L164.459 26.7915C164.218 27.8512 163.75 28.9647 163.003 30.1327L164.688 31.2104ZM166.405 22.8175C166.081 21.422 165.466 20.0969 164.633 18.8441L162.967 19.9511C163.693 21.0423 164.197 22.148 164.456 23.2688L166.405 22.8175ZM161.903 15.6272C160.947 14.7043 159.878 13.8182 158.727 12.9686L157.539 14.5778C158.633 15.3852 159.632 16.215 160.514 17.0661L161.903 15.6272ZM155.326 10.693C154.188 9.99639 153.001 9.32519 151.785 8.67952L150.847 10.4461C152.033 11.0755 153.184 11.7266 154.282 12.399L155.326 10.693ZM148.155 6.86106C146.932 6.28109 145.698 5.72451 144.468 5.19154L143.672 7.02664C144.884 7.55188 146.098 8.0991 147.297 8.66802L148.155 6.86106ZM140.738 3.63504C139.458 3.11895 138.202 2.62947 136.99 2.16702L136.277 4.03554C137.48 4.49464 138.724 4.97955 139.991 5.49005L140.738 3.63504ZM133.226 0.755953C132.575 0.515054 131.945 0.2832 131.346 0.0619458L130.654 1.93805C131.255 2.16017 131.881 2.39091 132.532 2.63171L133.226 0.755953Z" fill="#CF6E67"/>
</svg>
